<mxfile host="app.diagrams.net" modified="2022-05-09T09:13:51.016Z" agent="5.0 (Windows NT 10.0; Win64; x64) AppleWebKit/537.36 (KHTML, like Gecko) Chrome/98.0.4758.102 Safari/537.36 Edg/98.0.1108.62" etag="R8Wq4xZxah6PS7g_9tR9" version="18.0.2" type="github">
  <diagram name="Page-1" id="b98fa263-6416-c6ec-5b7d-78bf54ef71d0">
    <mxGraphModel dx="1896" dy="1059" grid="1" gridSize="10" guides="1" tooltips="1" connect="1" arrows="1" fold="1" page="1" pageScale="1.5" pageWidth="1169" pageHeight="826" background="none" math="0" shadow="0">
      <root>
        <mxCell id="0" style=";html=1;" />
        <mxCell id="1" style=";html=1;" parent="0" />
        <mxCell id="YeRdr_v14mPwPo_mnSce-10" style="edgeStyle=orthogonalEdgeStyle;rounded=0;orthogonalLoop=1;jettySize=auto;html=1;" edge="1" parent="1" source="303ed1de8c2c98b4-4" target="YeRdr_v14mPwPo_mnSce-9">
          <mxGeometry relative="1" as="geometry" />
        </mxCell>
        <mxCell id="YeRdr_v14mPwPo_mnSce-11" style="edgeStyle=orthogonalEdgeStyle;rounded=0;orthogonalLoop=1;jettySize=auto;html=1;" edge="1" parent="1" source="303ed1de8c2c98b4-4" target="YeRdr_v14mPwPo_mnSce-3">
          <mxGeometry relative="1" as="geometry">
            <Array as="points">
              <mxPoint x="879" y="332" />
              <mxPoint x="457" y="332" />
            </Array>
          </mxGeometry>
        </mxCell>
        <mxCell id="YeRdr_v14mPwPo_mnSce-14" style="edgeStyle=orthogonalEdgeStyle;rounded=0;orthogonalLoop=1;jettySize=auto;html=1;entryX=0.5;entryY=0;entryDx=0;entryDy=0;" edge="1" parent="1" source="303ed1de8c2c98b4-4" target="YeRdr_v14mPwPo_mnSce-12">
          <mxGeometry relative="1" as="geometry" />
        </mxCell>
        <mxCell id="YeRdr_v14mPwPo_mnSce-17" style="edgeStyle=orthogonalEdgeStyle;rounded=0;orthogonalLoop=1;jettySize=auto;html=1;" edge="1" parent="1" source="303ed1de8c2c98b4-4" target="YeRdr_v14mPwPo_mnSce-15">
          <mxGeometry relative="1" as="geometry">
            <Array as="points">
              <mxPoint x="879" y="332" />
              <mxPoint x="1297" y="332" />
            </Array>
          </mxGeometry>
        </mxCell>
        <mxCell id="303ed1de8c2c98b4-4" value="&lt;b&gt;&lt;font style=&quot;font-size: 19px;&quot;&gt;MIMIC-III Clinical Database&lt;/font&gt;&lt;/b&gt;" style="whiteSpace=wrap;html=1;rounded=1;shadow=1;strokeWidth=1;fontSize=16;align=center;fillColor=#f5f5f5;strokeColor=#666666;" parent="1" vertex="1">
          <mxGeometry x="624" y="250" width="510" height="45" as="geometry" />
        </mxCell>
        <mxCell id="YeRdr_v14mPwPo_mnSce-40" style="edgeStyle=orthogonalEdgeStyle;rounded=0;orthogonalLoop=1;jettySize=auto;html=1;fontSize=19;" edge="1" parent="1" source="YeRdr_v14mPwPo_mnSce-3" target="YeRdr_v14mPwPo_mnSce-36">
          <mxGeometry relative="1" as="geometry" />
        </mxCell>
        <mxCell id="YeRdr_v14mPwPo_mnSce-3" value="&lt;b&gt;&lt;font style=&quot;font-size: 19px;&quot;&gt;Patient&lt;/font&gt;&lt;/b&gt;" style="whiteSpace=wrap;html=1;rounded=1;shadow=1;strokeWidth=1;fontSize=16;align=center;fillColor=#f5f5f5;strokeColor=#666666;" vertex="1" parent="1">
          <mxGeometry x="327" y="370" width="260" height="45" as="geometry" />
        </mxCell>
        <mxCell id="YeRdr_v14mPwPo_mnSce-9" value="&lt;b&gt;&lt;font style=&quot;font-size: 19px;&quot;&gt;ICU Data&lt;/font&gt;&lt;/b&gt;" style="whiteSpace=wrap;html=1;rounded=1;shadow=1;strokeWidth=1;fontSize=16;align=center;fillColor=#f5f5f5;strokeColor=#666666;" vertex="1" parent="1">
          <mxGeometry x="607" y="370" width="260" height="45" as="geometry" />
        </mxCell>
        <mxCell id="YeRdr_v14mPwPo_mnSce-12" value="&lt;b&gt;&lt;font style=&quot;font-size: 19px;&quot;&gt;Hospital EHR&lt;/font&gt;&lt;/b&gt;" style="whiteSpace=wrap;html=1;rounded=1;shadow=1;strokeWidth=1;fontSize=16;align=center;fillColor=#f5f5f5;strokeColor=#666666;" vertex="1" parent="1">
          <mxGeometry x="887" y="370" width="260" height="45" as="geometry" />
        </mxCell>
        <mxCell id="YeRdr_v14mPwPo_mnSce-15" value="&lt;b&gt;&lt;font style=&quot;font-size: 19px;&quot;&gt;Dictionaries&lt;/font&gt;&lt;/b&gt;" style="whiteSpace=wrap;html=1;rounded=1;shadow=1;strokeWidth=1;fontSize=16;align=center;fillColor=#f5f5f5;strokeColor=#666666;" vertex="1" parent="1">
          <mxGeometry x="1167" y="370" width="260" height="45" as="geometry" />
        </mxCell>
        <mxCell id="YeRdr_v14mPwPo_mnSce-36" value="TABLES" style="swimlane;fontStyle=1;childLayout=stackLayout;horizontal=1;startSize=26;horizontalStack=0;resizeParent=1;resizeParentMax=0;resizeLast=0;collapsible=1;marginBottom=0;align=center;fontSize=19;glass=1;" vertex="1" parent="1">
          <mxGeometry x="327" y="460" width="260" height="180" as="geometry" />
        </mxCell>
        <mxCell id="YeRdr_v14mPwPo_mnSce-37" value="ADMISSIONS&#xa;CALLOUT&#xa;ICTSTAYS&#xa;PATIENTS&#xa;SERVICES&#xa;TRANSFERS&#xa;" style="text;strokeColor=none;fillColor=none;spacingLeft=4;spacingRight=4;overflow=hidden;rotatable=0;points=[[0,0.5],[1,0.5]];portConstraint=eastwest;fontSize=19;glass=1;" vertex="1" parent="YeRdr_v14mPwPo_mnSce-36">
          <mxGeometry y="26" width="260" height="154" as="geometry" />
        </mxCell>
        <mxCell id="YeRdr_v14mPwPo_mnSce-41" style="edgeStyle=orthogonalEdgeStyle;rounded=0;orthogonalLoop=1;jettySize=auto;html=1;fontSize=19;" edge="1" parent="1" target="YeRdr_v14mPwPo_mnSce-42">
          <mxGeometry relative="1" as="geometry">
            <mxPoint x="737" y="415" as="sourcePoint" />
          </mxGeometry>
        </mxCell>
        <mxCell id="YeRdr_v14mPwPo_mnSce-42" value="TABLES" style="swimlane;fontStyle=1;childLayout=stackLayout;horizontal=1;startSize=26;horizontalStack=0;resizeParent=1;resizeParentMax=0;resizeLast=0;collapsible=1;marginBottom=0;align=center;fontSize=19;glass=1;" vertex="1" parent="1">
          <mxGeometry x="607" y="460" width="260" height="227" as="geometry" />
        </mxCell>
        <mxCell id="YeRdr_v14mPwPo_mnSce-43" value="CAREGIVERS&#xa;&#xa;DATETIMEEVENTS&#xa;INPUTEVENTS_CV&#xa;INPUTEVENTS_MV&#xa;NOTEEVENTS&#xa;OUTPUTEVENTS&#xa;PROCEDUREEVENTS_MV" style="text;strokeColor=none;fillColor=none;spacingLeft=4;spacingRight=4;overflow=hidden;rotatable=0;points=[[0,0.5],[1,0.5]];portConstraint=eastwest;fontSize=19;glass=1;" vertex="1" parent="YeRdr_v14mPwPo_mnSce-42">
          <mxGeometry y="26" width="260" height="201" as="geometry" />
        </mxCell>
        <mxCell id="YeRdr_v14mPwPo_mnSce-44" style="edgeStyle=orthogonalEdgeStyle;rounded=0;orthogonalLoop=1;jettySize=auto;html=1;fontSize=19;" edge="1" parent="1" target="YeRdr_v14mPwPo_mnSce-45">
          <mxGeometry relative="1" as="geometry">
            <mxPoint x="1017" y="415" as="sourcePoint" />
          </mxGeometry>
        </mxCell>
        <mxCell id="YeRdr_v14mPwPo_mnSce-45" value="TABLES" style="swimlane;fontStyle=1;childLayout=stackLayout;horizontal=1;startSize=26;horizontalStack=0;resizeParent=1;resizeParentMax=0;resizeLast=0;collapsible=1;marginBottom=0;align=center;fontSize=19;glass=1;" vertex="1" parent="1">
          <mxGeometry x="887" y="460" width="260" height="200" as="geometry" />
        </mxCell>
        <mxCell id="YeRdr_v14mPwPo_mnSce-46" value="CPTEVENTS&#xa;DIAGNOSES_ICD&#xa;DRGCODES&#xa;LABEVENTS&#xa;MICROBIOLOGYEVENTS&#xa;PRESCRIPTIONS&#xa;PROCESURES_ICD" style="text;strokeColor=none;fillColor=none;spacingLeft=4;spacingRight=4;overflow=hidden;rotatable=0;points=[[0,0.5],[1,0.5]];portConstraint=eastwest;fontSize=19;glass=1;" vertex="1" parent="YeRdr_v14mPwPo_mnSce-45">
          <mxGeometry y="26" width="260" height="174" as="geometry" />
        </mxCell>
        <mxCell id="YeRdr_v14mPwPo_mnSce-47" style="edgeStyle=orthogonalEdgeStyle;rounded=0;orthogonalLoop=1;jettySize=auto;html=1;fontSize=19;" edge="1" parent="1" target="YeRdr_v14mPwPo_mnSce-48">
          <mxGeometry relative="1" as="geometry">
            <mxPoint x="1297" y="415" as="sourcePoint" />
          </mxGeometry>
        </mxCell>
        <mxCell id="YeRdr_v14mPwPo_mnSce-48" value="TABLES" style="swimlane;fontStyle=1;childLayout=stackLayout;horizontal=1;startSize=26;horizontalStack=0;resizeParent=1;resizeParentMax=0;resizeLast=0;collapsible=1;marginBottom=0;align=center;fontSize=19;glass=1;" vertex="1" parent="1">
          <mxGeometry x="1167" y="460" width="260" height="180" as="geometry" />
        </mxCell>
        <mxCell id="YeRdr_v14mPwPo_mnSce-49" value="D_CPT&#xa;D_ICD_DIAGNOSES&#xa;D_ICD_PROCEDURES&#xa;&#xa;D_LABITEMS" style="text;strokeColor=none;fillColor=none;spacingLeft=4;spacingRight=4;overflow=hidden;rotatable=0;points=[[0,0.5],[1,0.5]];portConstraint=eastwest;fontSize=19;glass=1;fontStyle=0" vertex="1" parent="YeRdr_v14mPwPo_mnSce-48">
          <mxGeometry y="26" width="260" height="154" as="geometry" />
        </mxCell>
        <mxCell id="YeRdr_v14mPwPo_mnSce-50" value="&lt;font color=&quot;#ff0000&quot; style=&quot;font-size: 19px;&quot;&gt;CHARTEVENTS&lt;/font&gt;" style="text;strokeColor=none;fillColor=none;html=1;fontSize=24;fontStyle=1;verticalAlign=middle;align=center;glass=1;" vertex="1" parent="1">
          <mxGeometry x="634" y="505" width="100" height="40" as="geometry" />
        </mxCell>
        <mxCell id="YeRdr_v14mPwPo_mnSce-51" value="&lt;font color=&quot;#ff0000&quot; style=&quot;font-size: 19px;&quot;&gt;D_ITEMS&lt;/font&gt;" style="text;strokeColor=none;fillColor=none;html=1;fontSize=24;fontStyle=1;verticalAlign=middle;align=center;glass=1;" vertex="1" parent="1">
          <mxGeometry x="1164" y="551" width="100" height="40" as="geometry" />
        </mxCell>
      </root>
    </mxGraphModel>
  </diagram>
</mxfile>
